<mxfile host="app.diagrams.net" agent="Mozilla/5.0 (Windows NT 10.0; Win64; x64) AppleWebKit/537.36 (KHTML, like Gecko) Chrome/130.0.0.0 Safari/537.36 Edg/130.0.0.0" version="24.8.3">
  <diagram name="Page-1" id="hxz2i_NrPAqjPGiPRz0h">
    <mxGraphModel dx="1426" dy="843" grid="0" gridSize="10" guides="1" tooltips="1" connect="1" arrows="1" fold="1" page="1" pageScale="1" pageWidth="850" pageHeight="1100" background="none" math="0" shadow="0">
      <root>
        <mxCell id="0" />
        <mxCell id="1" parent="0" />
        <mxCell id="YxjfI5JZOF2fyLaDAdDK-7" value="AWS Cloud" style="points=[[0,0],[0.25,0],[0.5,0],[0.75,0],[1,0],[1,0.25],[1,0.5],[1,0.75],[1,1],[0.75,1],[0.5,1],[0.25,1],[0,1],[0,0.75],[0,0.5],[0,0.25]];outlineConnect=0;gradientColor=none;html=1;whiteSpace=wrap;fontSize=12;fontStyle=0;container=1;pointerEvents=0;collapsible=0;recursiveResize=0;shape=mxgraph.aws4.group;grIcon=mxgraph.aws4.group_aws_cloud_alt;strokeColor=#232F3E;fillColor=none;verticalAlign=top;align=left;spacingLeft=30;fontColor=#232F3E;dashed=0;rounded=0;" parent="1" vertex="1">
          <mxGeometry x="136" y="135" width="1387" height="757" as="geometry" />
        </mxCell>
        <mxCell id="YxjfI5JZOF2fyLaDAdDK-8" value="Region" style="points=[[0,0],[0.25,0],[0.5,0],[0.75,0],[1,0],[1,0.25],[1,0.5],[1,0.75],[1,1],[0.75,1],[0.5,1],[0.25,1],[0,1],[0,0.75],[0,0.5],[0,0.25]];outlineConnect=0;gradientColor=none;html=1;whiteSpace=wrap;fontSize=12;fontStyle=0;container=1;pointerEvents=0;collapsible=0;recursiveResize=0;shape=mxgraph.aws4.group;grIcon=mxgraph.aws4.group_region;strokeColor=#00A4A6;fillColor=none;verticalAlign=top;align=left;spacingLeft=30;fontColor=#147EBA;dashed=1;rounded=0;" parent="YxjfI5JZOF2fyLaDAdDK-7" vertex="1">
          <mxGeometry x="21" y="37" width="680" height="694" as="geometry" />
        </mxCell>
        <mxCell id="YxjfI5JZOF2fyLaDAdDK-9" value="Availability Zone" style="fillColor=none;strokeColor=#147EBA;dashed=1;verticalAlign=top;fontStyle=0;fontColor=#147EBA;whiteSpace=wrap;html=1;rounded=0;" parent="YxjfI5JZOF2fyLaDAdDK-8" vertex="1">
          <mxGeometry x="17" y="42" width="289" height="632" as="geometry" />
        </mxCell>
        <mxCell id="YxjfI5JZOF2fyLaDAdDK-10" value="Availability Zone" style="fillColor=none;strokeColor=#147EBA;dashed=1;verticalAlign=top;fontStyle=0;fontColor=#147EBA;whiteSpace=wrap;html=1;rounded=0;" parent="YxjfI5JZOF2fyLaDAdDK-8" vertex="1">
          <mxGeometry x="360" y="42" width="289" height="632" as="geometry" />
        </mxCell>
        <mxCell id="YxjfI5JZOF2fyLaDAdDK-11" value="Region" style="points=[[0,0],[0.25,0],[0.5,0],[0.75,0],[1,0],[1,0.25],[1,0.5],[1,0.75],[1,1],[0.75,1],[0.5,1],[0.25,1],[0,1],[0,0.75],[0,0.5],[0,0.25]];outlineConnect=0;gradientColor=none;html=1;whiteSpace=wrap;fontSize=12;fontStyle=0;container=1;pointerEvents=0;collapsible=0;recursiveResize=0;shape=mxgraph.aws4.group;grIcon=mxgraph.aws4.group_region;strokeColor=#00A4A6;fillColor=none;verticalAlign=top;align=left;spacingLeft=30;fontColor=#147EBA;dashed=1;rounded=0;" parent="YxjfI5JZOF2fyLaDAdDK-7" vertex="1">
          <mxGeometry x="727" y="37" width="632" height="696" as="geometry" />
        </mxCell>
        <mxCell id="YxjfI5JZOF2fyLaDAdDK-12" value="Availability Zone" style="fillColor=none;strokeColor=#147EBA;dashed=1;verticalAlign=top;fontStyle=0;fontColor=#147EBA;whiteSpace=wrap;html=1;rounded=0;" parent="YxjfI5JZOF2fyLaDAdDK-11" vertex="1">
          <mxGeometry x="14" y="42" width="289" height="632" as="geometry" />
        </mxCell>
        <mxCell id="YxjfI5JZOF2fyLaDAdDK-13" value="Availability Zone" style="fillColor=none;strokeColor=#147EBA;dashed=1;verticalAlign=top;fontStyle=0;fontColor=#147EBA;whiteSpace=wrap;html=1;rounded=0;" parent="YxjfI5JZOF2fyLaDAdDK-11" vertex="1">
          <mxGeometry x="328" y="42" width="289" height="632" as="geometry" />
        </mxCell>
      </root>
    </mxGraphModel>
  </diagram>
</mxfile>
